<svg id="svg" version="1.1" xmlns="http://www.w3.org/2000/svg" xmlns:xlink="http://www.w3.org/1999/xlink" width="400" height="303.5416666666667" viewBox="0, 0, 400,303.5416666666667">
  <defs>
    <g id="image">
      <path stroke="none" fill="#349c7c" fill-rule="evenodd" d="M237.708 31.988 C 231.693 32.480,225.411 32.985,223.750 33.109 C 209.000 34.216,205.684 35.664,193.854 46.156 C 172.641 64.971,168.945 67.588,158.542 71.158 C 157.109 71.650,155.961 72.153,155.990 72.276 C 157.675 79.526,156.063 86.878,151.271 93.789 L 150.074 95.516 152.248 96.822 C 155.263 98.633,158.721 101.275,161.308 103.745 L 163.496 105.833 164.732 105.833 C 171.200 105.833,178.421 103.877,184.350 100.518 C 185.379 99.936,185.644 99.851,185.523 100.143 C 179.031 115.801,178.392 133.379,183.733 149.337 C 186.887 158.763,192.072 168.369,199.467 178.490 L 201.484 181.250 205.950 181.250 C 208.877 181.250,210.417 181.176,210.417 181.035 C 210.417 180.917,210.091 179.534,209.692 177.962 C 204.924 159.157,204.589 137.156,208.755 116.458 C 214.263 89.092,228.030 60.436,248.541 33.646 C 249.418 32.500,250.205 31.445,250.289 31.302 C 250.498 30.946,250.392 30.951,237.708 31.988 M138.859 73.570 C 138.630 74.192,137.917 76.319,137.917 76.379 C 137.917 76.521,142.835 74.124,143.118 73.844 C 143.384 73.580,143.201 73.541,141.659 73.539 C 140.689 73.537,139.686 73.480,139.430 73.411 C 139.133 73.331,138.925 73.389,138.859 73.570 "/>
      <path stroke="none" fill="#b3b3bb" fill-rule="evenodd" d="M274.896 58.457 C 247.804 60.525,225.551 80.006,217.089 109.063 C 215.935 113.024,215.392 115.833,214.250 123.750 C 213.117 131.596,214.273 144.472,216.967 154.032 C 217.956 157.543,220.727 164.998,221.042 164.996 C 221.131 164.995,238.954 138.867,242.342 133.769 C 243.474 132.065,243.560 131.843,243.966 129.579 C 248.059 106.703,261.990 85.570,280.208 74.597 L 281.979 73.531 285.421 68.172 C 287.314 65.224,288.955 62.819,289.067 62.828 C 289.230 62.840,291.831 67.701,292.114 68.523 C 292.157 68.648,293.214 68.407,294.688 67.936 C 297.199 67.133,301.465 66.085,304.375 65.557 L 305.938 65.273 303.125 63.908 C 298.614 61.717,292.024 59.561,288.893 59.252 C 288.342 59.197,286.936 59.016,285.768 58.848 C 283.669 58.546,276.910 58.303,274.896 58.457 M298.955 127.936 C 293.171 133.103,288.300 137.462,288.132 137.623 C 287.870 137.876,288.346 137.917,291.570 137.916 L 295.313 137.916 305.938 128.418 C 311.781 123.194,316.652 118.835,316.760 118.731 C 316.879 118.617,315.465 118.542,313.216 118.542 L 309.473 118.542 298.955 127.936 M315.938 127.532 C 310.438 132.466,305.569 136.820,305.119 137.209 L 304.300 137.917 314.333 137.917 L 324.366 137.917 335.100 128.315 C 341.003 123.034,345.833 118.675,345.833 118.628 C 345.833 118.580,341.357 118.546,335.885 118.552 L 325.938 118.562 315.938 127.532 M349.792 139.270 L 349.792 140.831 329.286 140.884 L 308.780 140.938 319.923 157.917 C 326.052 167.255,333.019 177.862,335.405 181.487 L 339.743 188.079 341.870 187.689 C 362.183 183.974,382.221 167.390,393.787 144.720 L 394.226 143.860 393.519 144.434 C 384.276 151.944,373.338 149.961,366.758 139.582 L 365.571 137.708 357.681 137.708 L 349.792 137.708 349.792 139.270 M157.726 229.873 C 158.113 230.234,168.076 236.523,168.264 236.525 C 168.552 236.528,176.054 233.151,176.344 232.888 C 176.467 232.776,176.457 232.708,176.317 232.708 C 176.193 232.708,172.026 232.053,167.057 231.251 C 157.935 229.781,157.569 229.727,157.726 229.873 M217.083 231.263 C 212.328 232.046,208.253 232.714,208.028 232.749 C 207.797 232.785,209.456 233.643,211.858 234.730 L 216.097 236.647 221.330 233.292 C 224.208 231.447,226.602 229.904,226.649 229.864 C 226.863 229.685,225.181 229.931,217.083 231.263 "/>
      <path stroke="none" fill="#2d2b2f" fill-rule="evenodd" d="M278.833 4.963 C 275.841 7.676,268.132 14.625,261.700 20.406 C 255.268 26.187,250.103 30.976,250.221 31.050 C 250.346 31.127,249.835 31.963,249.004 33.039 C 225.990 62.857,211.572 94.757,207.174 125.589 C 206.769 128.428,206.712 128.349,208.474 127.382 C 214.901 123.854,214.100 124.708,214.593 120.866 C 219.602 81.836,252.585 53.330,286.354 58.846 C 289.044 59.285,288.902 59.323,289.257 58.073 C 290.856 52.433,290.774 40.437,289.037 26.250 C 287.791 16.070,285.014 -0.017,284.508 0.015 C 284.378 0.023,281.824 2.249,278.833 4.963 M130.526 49.179 C 125.267 59.668,110.703 70.964,91.663 79.321 C 86.351 81.652,87.670 81.435,78.333 81.515 C 64.437 81.635,63.044 82.298,52.575 93.769 L 47.900 98.891 40.044 99.029 C 35.723 99.105,25.625 99.265,17.604 99.386 C 3.576 99.597,2.987 99.622,2.130 100.033 C -0.015 101.060,-0.672 103.662,0.627 105.984 C 7.632 118.504,18.276 127.073,30.245 129.829 C 32.090 130.254,32.812 130.281,44.610 130.361 L 57.033 130.446 57.598 131.035 L 58.163 131.625 57.761 132.531 C 56.495 135.383,56.325 135.414,42.240 135.416 C 35.737 135.416,30.417 135.468,30.417 135.531 C 30.417 136.651,34.855 142.253,37.544 144.527 C 42.851 149.014,48.044 151.266,55.468 152.299 C 57.091 152.525,59.313 152.955,60.407 153.256 C 61.501 153.557,62.659 153.850,62.980 153.906 C 65.449 154.340,71.544 158.223,74.681 161.360 C 84.223 170.902,86.171 183.559,80.900 201.771 C 79.504 206.597,75.076 216.954,73.775 218.438 C 73.574 218.667,72.861 219.792,72.190 220.938 C 66.456 230.731,56.435 242.221,47.715 248.999 C 46.756 249.745,46.853 249.774,49.167 249.437 C 74.259 245.787,94.800 232.256,110.146 209.268 C 114.603 202.592,119.361 193.208,121.548 186.781 C 121.988 185.486,124.930 192.169,125.830 196.509 C 127.243 203.327,127.082 216.659,125.512 222.708 C 125.349 223.339,125.019 224.979,124.780 226.354 C 124.541 227.729,124.061 230.056,123.715 231.525 C 123.368 232.993,123.139 234.250,123.206 234.317 C 123.407 234.519,130.624 229.314,134.026 226.512 C 134.923 225.774,135.684 225.202,135.718 225.241 C 135.752 225.281,133.960 227.656,131.736 230.521 C 129.511 233.385,127.510 235.975,127.288 236.275 L 126.885 236.822 129.612 241.380 C 133.736 248.270,140.030 257.917,140.403 257.917 C 140.494 257.917,141.749 256.794,143.190 255.421 C 147.142 251.658,149.286 250.559,153.801 249.980 C 156.315 249.658,156.168 249.442,155.750 252.860 C 155.236 257.064,153.046 272.814,152.793 274.128 C 152.575 275.259,161.849 285.691,167.917 291.141 C 185.769 307.173,197.193 307.586,214.479 292.824 C 219.893 288.200,231.840 275.297,231.561 274.375 C 231.337 273.633,229.167 257.824,228.263 250.343 L 228.191 249.749 229.773 249.896 C 234.559 250.340,237.047 251.529,240.939 255.232 C 242.491 256.709,243.842 257.917,243.941 257.917 C 244.109 257.917,249.004 250.596,251.394 246.771 C 254.068 242.491,257.291 237.047,257.287 236.817 C 257.284 236.677,256.077 235.016,254.604 233.125 C 253.130 231.234,251.944 229.665,251.968 229.637 C 252.023 229.572,254.098 229.216,269.853 226.569 C 280.266 224.819,283.025 224.418,283.371 224.604 C 283.610 224.732,284.426 225.234,285.184 225.721 C 285.942 226.207,294.063 231.368,303.229 237.190 C 312.396 243.011,324.021 250.396,329.063 253.600 C 334.104 256.804,338.331 259.465,338.456 259.514 C 338.689 259.605,338.730 257.851,339.161 228.750 C 339.405 212.311,339.550 203.447,339.713 194.981 L 339.840 188.399 324.243 164.619 L 308.646 140.840 294.115 140.836 L 279.583 140.833 279.583 137.397 L 279.583 133.961 265.156 133.908 L 250.729 133.854 250.674 128.281 L 250.618 122.708 265.101 122.708 L 279.583 122.708 279.583 119.271 L 279.583 115.833 300.289 115.833 L 320.994 115.833 321.120 114.948 C 322.751 103.433,320.271 87.354,314.892 74.583 C 313.436 71.125,311.066 66.419,310.848 66.553 C 310.760 66.608,307.842 71.098,304.364 76.532 L 298.040 86.411 297.169 82.945 C 295.972 78.183,293.070 69.796,292.294 68.855 C 292.199 68.740,291.447 67.300,290.625 65.655 C 289.802 64.009,289.053 62.744,288.962 62.842 C 288.871 62.940,287.367 65.271,285.620 68.021 C 283.873 70.771,282.234 73.255,281.978 73.542 C 281.722 73.828,279.990 76.453,278.128 79.375 C 265.046 99.909,260.158 107.435,254.791 115.313 C 253.385 117.375,250.355 121.828,248.056 125.208 C 245.758 128.589,243.817 131.401,243.743 131.458 C 243.670 131.516,243.561 131.750,243.502 131.979 C 243.379 132.458,221.794 164.319,221.272 164.792 C 219.989 165.955,216.420 171.744,216.601 172.370 C 216.751 172.892,216.668 173.330,216.181 174.583 C 215.847 175.443,215.302 177.218,214.970 178.529 C 214.638 179.839,214.314 180.964,214.249 181.029 C 214.185 181.093,204.160 181.146,191.971 181.146 L 169.811 181.146 169.463 179.583 C 168.813 176.660,167.122 172.301,166.332 171.511 C 165.990 171.168,165.945 170.955,165.639 168.229 C 164.189 155.282,155.867 140.918,143.975 130.837 C 141.330 128.594,141.326 128.544,143.845 129.274 C 151.916 131.613,167.798 140.440,168.247 142.836 C 168.376 143.524,168.434 143.574,168.978 143.465 C 169.623 143.336,171.584 144.740,175.732 148.303 C 176.818 149.237,177.815 150.000,177.946 150.000 C 178.151 150.000,178.097 145.399,177.843 141.271 C 177.816 140.826,177.993 140.711,179.479 140.207 C 181.391 139.558,181.267 139.922,180.754 136.458 C 179.041 124.894,180.792 111.554,185.523 100.143 C 185.644 99.851,185.379 99.936,184.350 100.518 C 179.456 103.291,173.659 105.156,168.750 105.539 C 167.084 105.668,166.921 105.725,165.988 106.498 L 164.997 107.319 162.655 105.036 C 154.379 96.970,144.302 91.577,133.924 89.661 C 131.406 89.196,131.448 89.276,132.660 87.257 C 142.252 71.285,142.524 57.408,133.414 48.755 C 131.504 46.941,131.660 46.918,130.526 49.179 M364.884 136.348 C 365.161 136.974,365.491 137.607,365.616 137.754 C 365.742 137.901,366.423 138.910,367.131 139.997 C 375.602 153.016,391.163 151.595,399.237 137.063 C 399.656 136.308,400.000 135.581,400.000 135.449 C 400.000 135.269,395.508 135.208,382.190 135.208 L 364.380 135.208 364.884 136.348 M167.437 231.264 C 172.452 232.073,176.583 232.763,176.617 232.797 C 176.667 232.847,169.351 236.241,168.441 236.590 C 168.238 236.668,158.573 230.641,157.823 229.969 C 157.491 229.672,157.990 229.739,167.437 231.264 M226.649 229.873 C 226.539 229.975,217.865 235.579,216.834 236.213 L 216.065 236.686 212.043 234.871 C 207.970 233.032,207.377 232.719,207.927 232.696 C 208.093 232.689,212.120 232.042,216.875 231.259 C 224.839 229.946,226.881 229.657,226.649 229.873 "/>
      <path stroke="none" fill="#8373db" fill-rule="evenodd" d="M151.454 67.638 C 148.748 70.360,144.750 73.117,140.512 75.183 L 138.003 76.407 137.404 77.943 C 136.170 81.108,134.468 84.459,132.115 88.356 L 131.661 89.107 133.983 89.570 C 138.425 90.455,142.680 91.902,147.271 94.087 C 148.807 94.818,150.090 95.417,150.122 95.417 C 150.297 95.417,152.858 91.359,153.541 90.001 C 156.721 83.676,157.314 79.201,155.927 71.982 C 155.654 70.560,153.904 66.810,153.267 66.281 C 153.082 66.128,152.589 66.496,151.454 67.638 M300.260 115.990 L 279.583 116.044 279.583 128.439 L 279.583 140.833 314.688 140.833 L 349.792 140.833 349.792 128.333 L 349.792 115.833 335.365 115.884 C 327.430 115.912,311.633 115.960,300.260 115.990 M316.760 118.731 C 316.652 118.835,311.781 123.194,305.938 128.418 L 295.313 137.916 291.570 137.916 C 288.346 137.917,287.870 137.876,288.132 137.623 C 288.300 137.462,293.171 133.103,298.955 127.936 L 309.473 118.542 313.216 118.542 C 315.465 118.542,316.879 118.617,316.760 118.731 M345.833 118.628 C 345.833 118.675,341.003 123.034,335.100 128.315 L 324.366 137.917 314.333 137.917 L 304.300 137.917 305.119 137.209 C 305.569 136.820,310.438 132.466,315.938 127.532 L 325.938 118.562 335.885 118.552 C 341.357 118.546,345.833 118.580,345.833 118.628 M141.787 128.923 C 141.892 129.012,142.776 129.750,143.750 130.563 C 156.254 141.001,164.388 155.390,165.939 169.820 C 166.274 172.929,167.129 170.823,168.319 163.958 C 169.493 157.188,169.498 145.546,168.328 143.354 C 168.230 143.171,168.101 142.782,168.040 142.489 C 167.723 140.963,153.810 132.887,147.442 130.533 C 145.292 129.739,141.460 128.647,141.787 128.923 M213.798 132.917 C 213.798 133.318,213.841 133.482,213.894 133.281 C 213.946 133.081,213.946 132.753,213.894 132.552 C 213.841 132.352,213.798 132.516,213.798 132.917 M62.697 154.492 L 62.227 154.991 63.078 156.823 C 68.688 168.897,66.234 181.670,55.381 196.875 C 45.387 210.877,28.983 223.152,11.094 230.016 C 8.268 231.100,8.276 231.071,10.677 231.513 C 31.315 235.317,52.237 231.374,70.928 220.159 L 73.835 218.414 75.353 215.407 C 82.387 201.470,85.344 185.715,82.806 175.687 C 80.468 166.447,73.632 158.472,64.821 154.700 L 63.166 153.992 62.697 154.492 M121.531 187.031 C 116.762 201.260,104.375 219.581,93.080 229.113 C 91.689 230.287,91.308 230.763,90.387 232.480 C 89.797 233.579,88.478 235.872,87.457 237.574 C 86.435 239.276,85.646 240.716,85.703 240.773 C 85.978 241.047,96.339 237.636,101.758 235.487 C 109.105 232.573,115.493 229.394,120.895 225.964 C 125.577 222.991,125.472 223.097,125.770 221.035 C 127.798 207.015,126.675 195.055,122.680 188.125 C 121.766 186.540,121.713 186.490,121.531 187.031 "/>
      <path stroke="none" fill="#4c3c92" fill-rule="evenodd" d="M289.844 115.990 C 295.544 116.020,304.872 116.020,310.573 115.990 C 316.273 115.959,311.609 115.934,300.208 115.934 C 288.807 115.934,284.143 115.959,289.844 115.990 M250.674 128.281 L 250.729 133.854 265.156 133.908 L 279.583 133.961 279.583 128.335 L 279.583 122.708 265.101 122.708 L 250.618 122.708 250.674 128.281 M74.583 161.354 C 75.206 161.984,75.762 162.500,75.819 162.500 C 75.876 162.500,75.414 161.984,74.792 161.354 C 74.169 160.724,73.613 160.208,73.556 160.208 C 73.499 160.208,73.961 160.724,74.583 161.354 M126.737 205.417 C 126.737 206.276,126.773 206.628,126.818 206.198 C 126.863 205.768,126.863 205.065,126.818 204.635 C 126.773 204.206,126.737 204.557,126.737 205.417 M126.733 210.417 C 126.733 211.161,126.771 211.466,126.817 211.094 C 126.864 210.721,126.864 210.112,126.817 209.740 C 126.771 209.367,126.733 209.672,126.733 210.417 M100.091 222.135 L 99.479 222.813 100.156 222.201 C 100.787 221.630,100.929 221.458,100.768 221.458 C 100.732 221.458,100.428 221.763,100.091 222.135 M94.258 227.969 L 93.646 228.646 94.323 228.034 C 94.954 227.464,95.096 227.292,94.935 227.292 C 94.899 227.292,94.594 227.596,94.258 227.969 "/>
    </g>
  </defs>

  <filter id="displacementFilter">
    <feDisplacementMap id="displacement-map" scale="4" xChannelSelector="R" yChannelSelector="G"/>
    <feGaussianBlur id="blur" stdDeviation="2" in="url(#displacement-map)"/>
    <feColorMatrix in="url(#blur)"
        type="matrix"
        values="0 0 0 0 0
                0 0 0 0 0
                0 0 0 0 0
                0 0 0 1 0" />
  </filter>

  <use filter="url(#displacementFilter)" href="#image"/>
  <use href="#image"/>

</svg>