<svg version="1" xmlns="http://www.w3.org/2000/svg" width="2560" height="2560" viewBox="0 0 1920.000000 1920.000000"><path d="M1358.9 238.3c-3 2.8-9.1 8.3-13.4 12.2-4.3 3.8-8.8 7.9-10 9-1.1 1.1-5.9 5.4-10.5 9.5-4.7 4.1-10.3 9.2-12.5 11.2-2.2 2-5 4.5-6.3 5.6-1.2 1.1-6.1 5.5-10.9 9.8-4.7 4.4-9.5 8.7-10.7 9.7-1.2 1-3.9 3.5-6.2 5.5-2.2 2-7.8 7.1-12.4 11.2-4.6 4.1-9.7 8.7-11.2 10.1-1.6 1.5-5.8 5.3-9.5 8.5-3.7 3.3-8.1 7.2-9.9 8.9-1.7 1.6-6 5.5-9.4 8.5-3.5 3-7.3 6.4-8.4 7.6-7.2 7.1-18.1 15.9-20 16-3.3.2-25.5 2.1-34.6 2.9-3 .2-9.3.7-14 1-4.7.3-10.3.8-12.5 1-2.2.3-7.6.7-12 1-12.4.9-19.5 1.4-25.5 2-3 .3-8.9.7-13 1-4.1.3-9.1.8-11 1-1.9.2-7.8.7-13 1-19.1 1.2-25.2 2.1-39.7 5.6-18.5 4.5-33 10.7-49.8 21.4-6.6 4.2-19.5 14.1-21.5 16.5-.3.3-6.3 5.7-13.5 12-18.6 16.5-19.7 17.4-20.9 18.5-.6.6-4.5 3.9-8.6 7.5s-7.7 6.8-8 7.1c-.6.7-15.3 13.5-19.4 17-1.6 1.3-3.7 3.1-4.5 3.9-1.4 1.3-18.8 16.2-25.7 22-20.8 17.5-52.2 36.2-75.4 45-4.7 1.8-9.4 3.6-10.5 4-2.9 1.2-14.8 5-15.6 5-.4 0-1.4-2.3-2.4-5.2-2.3-7.1-5.3-13.5-8.8-18.6l-2.9-4.3-7.6 7.5c-4.2 4.2-8.8 8.3-10.2 9.3-1.4.9-2.7 2-3 2.3-.9 1.1-13.3 9.5-19.6 13.4l-6.2 3.7-10.3-.6c-5.7-.4-10.5-.8-10.8-1-.2-.2.7-5.5 2-11.7 3.3-16.2 3.4-36.4.4-51.3-2.6-13.1-7.6-25.7-14.2-36.3-4.8-7.8-21.4-25.7-23.2-25.1-.5.2-3 4.4-5.5 9.3-20 38.6-59.8 74.9-122.1 111.4-21.1 12.3-54.2 28.7-80.5 39.7l-6.5 2.8-36 .2c-37.5.1-42.1.4-54.6 3.6-8.7 2.1-12.6 3.6-22.6 8.7-12.1 6-21.7 13.9-35.7 29.5-3.3 3.8-7.9 8.8-10.1 11.1-2.2 2.3-7.6 8.2-12 13.1s-9.9 10.9-12.1 13.4l-4.2 4.5-13.8.2c-7.7.1-31 .5-51.9.8-20.9.3-55.5.8-77 1.2-62.6.9-72.9 1.2-75.6 2.2-4.4 1.7-8.7 6.1-10.4 10.7-2.8 7.2-1.6 11.8 6.6 25.2 6.9 11.4 14.4 22.7 16.4 24.9.6.6 2.1 2.6 3.5 4.5 7.4 9.9 26 28.7 38 38.4 27.8 22.4 60.1 36.8 92 41.1 3 .4 30.4.8 60.7.8l55.3.1 3 3 2.9 3-2 4.5c-2.5 5.6-6.2 9.5-11.4 12.3-3.9 2.1-5 2.1-61 2.3-64.4.3-58.5.1-58.5 1.3 0 .9 12.7 20.2 13.9 21.1.3.3 3.3 3.5 6.5 7.2 16.3 18.9 42.8 35.9 68.2 43.7 13.3 4.1 11.3 3.8 37.4 7.4 7.2 1.1 14.8 2.8 22.7 5.4l8.3 2.6-2.5 2.3-2.5 2.3 3.4 6.8c6 12.2 11.6 29.5 13.1 39.8.3 2.3.8 5.2 1.1 6.5 1.1 5.6 1.1 29.2-.2 38.1-3.6 26.6-15.7 55.9-38.1 92.4-.7 1.1-1.6 2.7-2 3.5-.4.8-1.1 1.9-1.5 2.5-.5.5-4.5 6.2-9.1 12.6-4.5 6.3-9.8 13.5-11.7 15.8-22.6 27.6-43.5 47.7-75.5 72.9-5 3.9-28.4 20.2-33.5 23.3-3.6 2.2-9.4 5.8-12.9 8-3.4 2.1-6.5 3.9-6.7 3.9-.3 0-2.2 1.1-4.4 2.5-13.2 8.3-58.1 29.4-72.8 34.1-3.4 1.1-4.8 2-4 2.5 1.1.6 10.9 2.4 18.8 3.4 1.4.2 3.9.6 5.5.9 2.8.5 8.1 1.2 16.5 2.1 26.1 2.9 69.5 2.4 91.5-1 1.7-.3 5-.8 7.5-1.1 20-2.5 57.3-12 78.5-19.9 25.2-9.4 70.5-31.1 75.7-36.3.7-.7 1.6-1.2 2-1.2.4 0 3.9-2 7.8-4.5l7.1-4.5-2 3.7c-10.2 19.5-37.7 58.5-56.7 80.3-18.2 20.8-45.5 47.6-62.4 61.1-3.6 2.8-6.7 5.4-7 5.6-.3.3.9.3 2.5-.1 1.7-.3 5-.8 7.5-1.1 2.5-.3 9.5-1.5 15.5-2.6 64-11.8 121.7-37.4 172.8-76.8 5.4-4.2 11-8.4 12.3-9.5 2.3-1.7 2.2-1.2-1.2 5-5.6 10.3-18.4 32.4-21.4 36.9-1.5 2.2-3 4.5-3.3 5.1-1.8 3.1 58.2-16.9 88.3-29.4 16.3-6.8 50-22.8 55-26.2 1.4-.9 5.7-3.4 9.5-5.5 3.9-2.1 13.5-8.1 21.5-13.4 8-5.3 15.1-10 15.9-10.5 1-.6 1.2-.3.7 1-.5 1.9-.8 3.1-2.1 10.9-.5 3.3-2.5 13.4-5.1 26-.2 1.1-1.2 5.5-2.2 9.7l-1.9 7.7 3.1-2.1c10.7-7.5 23.2-16.3 23.6-16.8.3-.3 2.1-1.7 4-3s5.5-4 8-6l14.5-11.6c5.5-4.3 10.2-8.2 10.3-8.7.2-.4.8-.7 1.3-.7.6 0-1.4 3-4.4 6.7-5.8 7.3-34.6 44.5-39 50.4l-2.8 3.7 6.4 10.8c3.5 6 10.5 17.6 15.7 25.9 5.1 8.2 10.6 17.2 12.3 20 8.4 13.4 28.8 43.5 29.6 43.5.6 0 5.8-4.7 11.8-10.4 16.5-15.8 20.7-18.8 31.8-22.6 9.5-3.3 32.5-6.9 32.5-5.2 0 .9-2.9 24.8-3.5 28.2-.2 1.4-.6 4.7-.9 7.5-.4 2.7-.8 6.1-1.1 7.5-.2 1.4-.7 4.6-1 7.3-.7 6.7-1.7 13.9-2 15.7-.3 1.5-2.1 14.3-3.1 21-.2 1.9-.6 4.8-.9 6.5-.5 3-1.4 9.3-1.9 13-.2 1.1-.7 4.5-1.1 7.6l-.7 5.6 6.2 7.4c9.3 11.2 9.9 11.9 16.9 19.9 12.5 14.2 15.7 17.6 32.6 34.5 14 14 26.4 25.1 44 39.3 6.9 5.6 27.7 18.6 37.5 23.4 21.2 10.4 34.3 13.7 52.4 13.3 6.6-.1 13.5-.5 15.1-.8 16.2-3.1 39.4-13.4 57.8-25.7 31.2-20.7 65.4-53 102.1-96.4 6.9-8.2 12.6-15.2 12.6-15.6 0-.4-.4-2.9-.9-5.6-.5-2.7-1.3-7.6-1.6-10.9-.4-3.3-.9-6.2-1-6.5-.2-.3-.6-3-.9-6-.4-3-.9-6.6-1.1-8-.2-1.4-.7-4.5-1-7-.4-2.5-.8-5.6-1-7-.2-1.4-1.1-7.9-2-14.5-.8-6.6-1.7-13.1-2-14.5-.2-1.4-.7-4.5-.9-7-1.1-9.8-1.8-15.6-2.2-18-.2-1.4-.7-5.4-1-8.9l-.7-6.3 4.4.6 8.8 1.1c9.1 1.1 22.7 5.1 28.4 8.2 5.1 2.9 12.6 9.1 21.7 18.1 9.6 9.5 12.8 12 13.8 10.6 24.2-36 50.2-77 59.9-94.4l3.1-5.5-12.8-16.5c-7.1-9.1-12.9-17-12.9-17.5-.1-.6 7.2-2.3 16.2-3.8 8.9-1.5 17.1-2.9 18.2-3.1 1.1-.2 4.2-.7 6.8-1 4.8-.7 6.7-1.1 11.7-2.1 1.4-.2 3.9-.7 5.5-.9 1.7-.3 7.3-1.2 12.5-2.1 5.2-.9 10.9-1.8 12.5-2.1 1.7-.2 5.3-.8 8-1.3 2.8-.6 6.6-1.3 8.5-1.5 1.9-.3 4.6-.8 6-1 1.4-.3 4.1-.7 6-1 1.9-.3 4.4-.7 5.5-1 1.1-.2 4.2-.7 6.8-1 2.6-.4 7.1-1.1 10-1.7 2.9-.5 6.8-1.2 8.7-1.5 1.9-.3 4.2-.7 5-.9.8-.2 5.9 2.4 11.2 5.8 5.4 3.4 16.9 10.7 25.5 16.1 8.7 5.5 19.4 12.3 23.8 15.2 4.4 2.8 17.5 11.1 29 18.4 11.6 7.3 24.6 15.6 29 18.5 12.2 7.9 42.2 26.8 44.7 28.3 1.3.7 6.4 3.9 11.3 7.2 5 3.3 10.6 6.9 12.5 8 1.9 1.1 6.1 3.7 9.3 5.8 3.1 2 12.8 8.2 21.5 13.6 8.6 5.5 19.5 12.4 24.2 15.4 4.7 3 11 7 14 9 3 1.9 6.8 4.4 8.3 5.4 1.6 1.1 3.1 1.7 3.4 1.5.2-.3.6-10.4.8-22.4.3-20.1.7-45.7 2.1-130.8.2-17.6.6-43.7.9-58 .2-14.3.7-47.6 1.1-74 .3-26.4.7-50.1.7-52.7l.1-4.6 4.6-.7c2.5-.4 5.6-.9 7-1.1 12.8-1.7 42.6-10.9 60.5-18.7 13.7-5.9 44.2-22.9 52-28.9.6-.4 6.6-5.1 13.5-10.4 16.2-12.4 21.7-17.2 36.9-32.4 22.3-22.2 42.8-47.6 61.3-76 8.9-13.6 18.9-30.6 23.4-39.4 1-2.1 4.5-6.7 7.6-10.2 3.2-3.5 6.5-7.6 7.5-9.1 1-1.6 2-3 2.3-3.3 1.3-1.3 6.1-9.3 9.4-15.8l3.6-7.2h-85c-46.7 0-85 .2-85 .5s1.2 2.8 2.6 5.6c1.4 2.8 2.3 5.3 2.1 5.5-.4.4-57 .7-73.2.4h-3v-52.2l.1-52.3h-138.1l.3-5c.2-2.8.5-6.1.8-7.5 1.3-5.9 1.2-50.2-.1-63.5-2.3-23.4-3.9-33.2-11-63.5-3.7-16.3-12.7-42.5-21.8-64-5.2-12.3-15.8-33-16.7-32.5-.5.3-30.7 47.4-54.9 85.5-3.5 5.5-6.5 9.9-6.7 9.8-.1-.2-2.1-7.5-4.3-16.3-5.4-21.3-13.8-46.7-20.5-61.9-1.4-3.2-2.6-6.4-2.6-7.1 0-1.9 33.9-12 47-14.1 1.9-.3 4.2-.7 5-.9.8-.2 3.5-.7 6-1 2.4-.4 4.8-.9 5.3-1.2 2.8-1.7-48.6-22.3-61.6-24.7-1.5-.2-3-.7-3.4-.9-.5-.3-2.6-.8-4.7-1.1-4.6-.7-8.8-1.7-9.8-2.3-.4-.2-.3-1.6.3-3.1 2.1-5.5 4.4-18.6 5.6-32.2 1.3-14.8.7-56.5-1.1-77-.2-1.9-.7-7.1-1-11.5-.4-4.4-.9-9.4-1.1-11-.2-1.7-.7-5.7-1-9-.3-3.3-.8-7.4-1-9-.2-1.7-.9-7.3-1.6-12.5-.6-5.2-1.3-10.2-1.4-11.1-.2-.9-.6-3.8-.9-6.5-.4-2.7-.8-6.3-1-7.9-.2-1.7-1.1-7.4-2-12.8-.9-5.3-2.3-13.9-3.1-19-1.6-9.4-2.2-13.3-3.1-17.7-.2-1.4-.7-4.1-1-6-1.9-12.5-7.1-36.4-7.9-36.6-.6-.2-3.5 2-6.6 4.9zm-7.8 350.9c-1.5 2.4-8.1 12.6-14.6 22.8-12.1 19-16.9 26.4-24.7 38.5-2.5 3.8-9.2 14.4-15 23.5-35.7 56.2-47.7 74.3-80.5 122.5-6.3 9.3-17.2 25.3-24.1 35.5-15.2 22.5-23.2 34-23.7 34-.1 0 .1-1.8.6-4s1.2-5.6 1.5-7.6c.3-2 .8-4.6 1-5.8.3-1.1.7-3.2 1-4.6.3-1.4 2-8.8 3.9-16.6 11.6-46.8 31.4-91.4 58.8-132.1 6.5-9.7 20.9-28.8 22.8-30.3.3-.3 3.3-3.7 6.6-7.5 9.4-10.8 23.1-24.4 36.3-36 12.8-11.2 48.9-36.5 52.2-36.5.4 0-.5 1.9-2.1 4.2zM801 740c0 1.2-9.1 8.1-9.9 7.5-.5-.3-2.3-2.3-4-4.4l-3-3.8 8.4.1c4.7 0 8.5.3 8.5.6zm226.4 117.7c-.2 28.2.1 33.8 2.7 54.3.5 4.7 1.2 9.6 1.3 11 3 24.3 13.5 62.2 24.1 87.5 2.6 6 4.9 11.7 5.2 12.6.3 1-2.7 6.2-7.3 13-4.3 6.3-9.2 13.5-11 16.1-2.8 4.2-3.1 5.1-2.2 7.6.9 2.3.6 3.9-1.5 9.3-2.9 7.3-8.7 27.9-8.7 30.9 0 1.9-.6 2-10 1.9-10-.1-10-.1-10.6-2.8-.3-1.4-.8-3.3-1.1-4.1-.6-2-3.1-11.2-3.7-14.2-.3-1.2-1-4.1-1.5-6.3-.6-2.2-1.3-5.6-1.6-7.5-.3-1.9-1-5.1-1.5-7-2.8-11-7.9-45.1-9.5-64-.3-4.1-.8-9.1-1-11-2.4-22.7-2.4-81.3 0-105 .2-1.9.6-6.7.9-10.5.6-6.5 1.2-12.1 2-18.6.4-3.8 1.1-4.5 7.4-7.7 3.1-1.6 10.4-5.7 16.2-9 5.8-3.4 10.7-6.1 11-6.1.3-.1.5 13.3.4 29.6zm-155.4 54c9 40.8 28.9 88.5 53.7 128.8 3.1 4.9 6.5 10.6 7.6 12.5 1.2 1.9 2.4 3.7 2.7 4 .3.3 2.3 3.2 4.4 6.5 2.1 3.3 9 13.1 15.2 21.7 6.3 8.6 11.4 15.9 11.4 16.2 0 .3-33.8.5-75 .5-41.3 0-75.4.3-76 .6-.5.3-1.4-1.1-1.9-3.2s-1.7-6.5-2.5-9.8c-2.1-8.3-5.8-18.7-9.5-26.8l-3.1-6.8 2-7.2c2.4-8.9 5.5-23.8 7-33.7.6-4.1 1.3-8.5 1.5-9.7 2.4-15.6 2.7-55.1.5-71.8-.8-6.1-1.5-11.4-1.5-11.9s1.2-1.3 2.7-1.7c2.3-.6 4.1.4 13 7.4 5.6 4.4 14.4 11.5 19.5 15.8 5.1 4.4 9.5 7.9 9.9 7.9.4 0 .4-9.9.1-21.9l-.6-21.9 6.7-2.5c10.3-3.8 9.7-4.1 12.2 7z"/></svg>